<svg width="34" height="34" viewBox="0 0 34 34" fill="none" xmlns="http://www.w3.org/2000/svg">
<g clip-path="url(#clip0_11292_31)">
<path fill-rule="evenodd" clip-rule="evenodd" d="M16.825 2.1661C8.33539 2.1661 1.46237 9.00407 1.46237 17.425C1.46237 23.6082 5.16808 28.9291 10.5016 31.3224C11.0596 31.5734 11.605 31.4739 12.0313 31.1542C12.267 30.9706 12.457 30.735 12.5864 30.4657C12.7158 30.1964 12.7811 29.9008 12.7772 29.6021V28.8029L10.8746 28.5449C10.8605 28.543 10.8464 28.5407 10.8325 28.5379C9.78374 28.3332 9.07569 27.9644 8.55692 27.433C8.12087 26.9858 7.85447 26.4502 7.62874 25.9959L7.55022 25.8375C7.34158 25.4023 7.11375 24.9766 6.8674 24.5616C6.67812 24.2615 6.5309 24.1073 6.38509 24.0106C6.01494 23.7652 5.65881 23.3488 5.65881 22.8286C5.65754 22.6789 5.6896 22.5308 5.75265 22.395C5.8157 22.2592 5.90816 22.1391 6.02335 22.0434C6.24075 21.8713 6.51169 21.781 6.78889 21.7883C7.10015 21.7883 7.39319 21.8836 7.63715 21.993C7.88672 22.1051 8.13489 22.2538 8.36623 22.408C8.92987 22.7837 9.48509 23.2282 9.95479 23.7764C10.4441 24.3457 10.7904 24.7074 11.312 24.7817C11.741 24.8434 12.1785 24.8448 12.5192 24.8294C12.5666 24.5596 12.6446 24.2962 12.7519 24.0442C12.3358 23.9471 11.9253 23.8273 11.5223 23.6853C10.6054 23.36 9.58324 22.8538 8.89622 22.0869C8.1419 21.2429 7.675 20.4899 7.41422 19.6094C7.16044 18.7513 7.11838 17.8218 7.11838 16.6777C7.11838 14.9251 7.8769 13.4487 8.44615 12.6649C8.22744 11.9787 8.07026 11.2744 7.97645 10.5604C7.91433 10.1101 7.9148 9.65334 7.97785 9.20316C8.04796 8.79235 8.22322 8.2876 8.6845 7.98335C9.12896 7.68751 9.65054 7.70013 10.0571 7.77584C10.4792 7.85576 10.918 8.03102 11.3218 8.23152C11.9794 8.5568 12.6328 8.99145 13.1221 9.36019C13.9662 9.11203 15.4594 8.79235 16.8096 8.76291H16.8404C18.192 8.79235 19.618 9.11203 20.441 9.35879C20.9317 8.99145 21.5837 8.5554 22.2398 8.23152C22.6436 8.03102 23.0811 7.85576 23.5045 7.77584C23.9111 7.70013 24.4327 7.68751 24.8786 7.98195C25.3385 8.2876 25.5151 8.79235 25.5838 9.20316C25.6553 9.6308 25.6385 10.1089 25.5838 10.5604C25.4904 11.2744 25.3337 11.9787 25.1155 12.6649C25.6848 13.4501 26.4433 14.9265 26.4433 16.6777C26.4433 17.8218 26.4012 18.7513 26.1489 19.608C25.8867 20.4913 25.4198 21.2429 24.6654 22.0869C23.9784 22.8538 22.9563 23.36 22.0393 23.6853C21.5526 23.8564 21.0552 23.9955 20.5503 24.1017C20.7228 24.6233 20.7845 25.0453 20.7845 25.2879V29.6203C20.7845 30.2793 21.0915 30.8415 21.5276 31.1696C21.951 31.4907 22.495 31.5902 23.0531 31.3463C28.4371 28.9739 32.1862 23.639 32.1862 17.4236C32.1862 9.00406 25.316 2.1661 16.825 2.1661ZM13.2861 26.2329C12.9216 26.2847 13.2847 26.2329 13.2847 26.2329H13.2805L13.2693 26.2357L13.2287 26.2413C13.0204 26.2657 12.8114 26.2831 12.6019 26.2932C12.1029 26.3192 11.6026 26.299 11.1073 26.2329C9.99826 26.0758 9.32385 25.2907 8.88781 24.7803L8.84574 24.7326C8.70318 24.5673 8.55003 24.4113 8.38726 24.2657C8.53168 24.5321 8.6817 24.8294 8.84294 25.1491L8.85696 25.1771L8.92847 25.3229C9.17383 25.8108 9.33507 26.1361 9.60287 26.4081C9.86366 26.6745 10.2703 26.9325 11.0919 27.0951L13.6072 27.4359C13.7829 27.4596 13.944 27.5464 14.0605 27.6799C14.1771 27.8135 14.2412 27.9849 14.241 28.1621V29.6021C14.241 30.7237 13.7152 31.7234 12.909 32.3291C12.4857 32.6525 11.9822 32.8543 11.4527 32.9126C10.9232 32.9709 10.3878 32.8836 9.90432 32.66C4.06885 30.0423 0 24.2139 0 17.425C0 8.18244 7.539 0.700928 16.825 0.700928C26.111 0.700928 33.65 8.18244 33.65 17.425C33.65 24.2489 29.5293 30.0928 23.6433 32.6881C23.1594 32.9074 22.625 32.991 22.0972 32.93C21.5695 32.869 21.0682 32.6657 20.6471 32.3417C20.2307 32.0212 19.8942 31.6085 19.6641 31.1361C19.434 30.6637 19.3164 30.1444 19.3207 29.6189V25.2865C19.3207 25.1883 19.252 24.6219 18.8692 23.8605C18.8164 23.755 18.7898 23.6382 18.7916 23.5202C18.7935 23.4022 18.8238 23.2863 18.8799 23.1824C18.936 23.0786 19.0163 22.9898 19.1141 22.9236C19.2118 22.8573 19.324 22.8156 19.4413 22.802C20.1601 22.7119 20.8671 22.5445 21.55 22.3028C22.3829 22.0084 23.1302 21.6046 23.5746 21.1083C24.235 20.3708 24.5645 19.8043 24.7454 19.1916C24.9332 18.5565 24.9809 17.8176 24.9809 16.6777C24.9809 15.0779 24.1397 13.7333 23.7527 13.3C23.6649 13.2021 23.605 13.0824 23.5793 12.9534C23.5537 12.8244 23.5632 12.6908 23.6069 12.5668C23.8561 11.8603 24.0323 11.1303 24.1327 10.3879C24.1775 10.0023 24.1803 9.67987 24.1411 9.44712C24.1323 9.36203 24.1065 9.27955 24.0654 9.20456C23.9688 9.18786 23.8698 9.19216 23.7751 9.21718C23.5368 9.26205 23.2325 9.37422 22.8876 9.54527C22.2006 9.88457 21.4855 10.3865 21.0425 10.7455C20.9448 10.8247 20.8282 10.8774 20.7041 10.8982C20.5801 10.9191 20.4527 10.9075 20.3344 10.8646C19.1992 10.4933 18.0184 10.2796 16.825 10.2295C15.4131 10.2631 13.7839 10.6641 13.2273 10.8646C13.109 10.9075 12.9816 10.9191 12.8575 10.8982C12.7335 10.8774 12.6169 10.8247 12.5192 10.7455C11.9462 10.2842 11.328 9.88205 10.6741 9.54527C10.3932 9.3978 10.0944 9.28751 9.78514 9.21718C9.69087 9.19236 9.59238 9.18806 9.49631 9.20456C9.4551 9.27954 9.42935 9.36202 9.4206 9.44712C9.38134 9.67987 9.38414 10.0023 9.42901 10.3879C9.53005 11.1301 9.70622 11.8602 9.95479 12.5668C10.0431 12.8191 9.98844 13.0996 9.80898 13.3C9.422 13.7333 8.58075 15.0779 8.58075 16.6777C8.58075 17.8162 8.62842 18.5565 8.8163 19.1916C8.99857 19.8043 9.32666 20.3694 9.98564 21.1083C10.4315 21.6046 11.1774 22.0084 12.0116 22.3028C12.6941 22.5444 13.4007 22.7117 14.119 22.802C14.2668 22.8178 14.4062 22.8783 14.5188 22.9754C14.6314 23.0724 14.7117 23.2015 14.7492 23.3453C14.7866 23.4891 14.7794 23.641 14.7284 23.7806C14.6775 23.9202 14.5852 24.041 14.4639 24.1269C14.2325 24.2924 14.0797 24.5896 13.9942 24.9331C13.95 25.11 13.9237 25.2908 13.9157 25.4729V25.4996C13.9175 25.6773 13.8546 25.8497 13.7388 25.9846C13.623 26.1195 13.4621 26.2077 13.2861 26.2329V26.2329Z" fill="#F8F8F8"/>
</g>
<defs>
<clipPath id="clip0_11292_31">
<rect width="33.65" height="33.65" fill="white"/>
</clipPath>
</defs>
</svg>
