<svg width="50" height="35" viewBox="0 0 50 35" fill="none" xmlns="http://www.w3.org/2000/svg">
<g clip-path="url(#clip0_11298_30)">
<path d="M25.814 11.5929L28.1928 11.303C28.2471 12.0361 28.3466 12.5816 28.5094 12.9738C28.7717 13.5875 29.1335 13.8944 29.6129 13.8944C29.9656 13.8944 30.246 13.7409 30.436 13.417C30.6169 13.1613 30.7254 12.7521 30.7254 12.3259C30.7254 11.9168 30.6259 11.5247 30.4541 11.2689C30.2732 10.9621 29.848 10.6552 29.1787 10.3824C28.0843 9.92213 27.2974 9.30839 26.8361 8.52417C26.3748 7.7911 26.1125 6.71706 26.1306 5.57483C26.1306 4.79061 26.2572 4.00639 26.4924 3.35856C26.7637 2.62549 27.1346 2.04585 27.5778 1.72193C28.0572 1.32982 28.7265 1.12524 29.5677 1.12524C30.5988 1.12524 31.3857 1.48326 31.9284 2.21633C32.4711 2.93236 32.7967 4.09163 32.8962 5.67712L30.5445 5.93284C30.4812 5.25091 30.3546 4.75652 30.1465 4.4326C29.9385 4.10868 29.6671 3.95525 29.3144 3.95525C29.025 3.95525 28.8079 4.07459 28.6632 4.29621C28.5275 4.50079 28.437 4.80766 28.4461 5.14862C28.4461 5.40435 28.5185 5.64302 28.627 5.79646C28.7446 6.00104 29.025 6.18857 29.4682 6.35905C30.5626 6.8023 31.3404 7.24556 31.8198 7.70586C32.2992 8.16616 32.6429 8.72875 32.8509 9.39363C33.068 10.0756 33.1766 10.8598 33.1675 11.661C33.1675 12.6157 33.0228 13.5704 32.7334 14.3717C32.4349 15.2071 32.0188 15.8549 31.5304 16.247C31.0148 16.6732 30.3636 16.8948 29.5857 16.8948C28.2109 16.8948 27.2612 16.4005 26.7276 15.3946C26.1939 14.3888 25.8774 13.1272 25.814 11.5929ZM0.569826 16.6391V1.39802H4.73951C5.50832 1.39802 6.10528 1.51735 6.5123 1.77308C6.91027 2.01175 7.26302 2.50615 7.49819 3.17103C7.76049 3.9041 7.88712 4.75651 7.87808 5.64302C7.90521 7.14327 7.49819 8.57532 6.80174 9.32544C6.53039 9.61526 6.23191 9.81984 5.92438 9.92213C6.15051 10.0415 6.37663 10.246 6.57561 10.4847C6.72938 10.7234 6.85601 10.9962 6.97359 11.286C7.10926 11.5758 7.22685 11.8997 7.32634 12.2407L8.53835 16.6562H5.69826L4.35962 11.9679C4.18777 11.3712 4.04305 10.9791 3.90738 10.7916C3.72648 10.5529 3.50941 10.4336 3.29233 10.4336H3.07525V16.6221H0.569826V16.6391ZM3.07525 7.56947H4.1335C4.35962 7.53538 4.5767 7.46718 4.79378 7.36489C4.95658 7.31375 5.1013 7.14327 5.2008 6.88754C5.44501 6.27381 5.40883 5.40435 5.11035 4.87585C4.94754 4.62013 4.63097 4.48374 4.17873 4.48374H3.07525V7.56947ZM0 29.6981L2.3788 29.4082C2.43307 30.1413 2.53256 30.6869 2.69537 31.079C2.94863 31.6927 3.31946 32.0166 3.79884 32.0166C4.15159 32.0166 4.43198 31.8632 4.62192 31.5393C4.80282 31.2665 4.91136 30.8744 4.91136 30.4482C4.91136 30.039 4.81187 29.6469 4.64001 29.3912C4.45912 29.0843 4.03401 28.7775 3.35564 28.5047C2.26122 28.0444 1.47431 27.4306 1.01302 26.6464C0.551737 25.9134 0.289436 24.8393 0.307525 23.6971C0.307525 22.9129 0.434153 22.1287 0.66932 21.4808C0.940666 20.7477 1.31151 20.1681 1.7547 19.8442C2.23408 19.4521 2.9034 19.2475 3.74457 19.2475C4.77569 19.2475 5.56259 19.6055 6.10528 20.3386C6.64797 21.0717 6.96454 22.2139 7.06404 23.7994L4.71237 24.0551C4.64906 23.3732 4.52243 22.8788 4.3144 22.5549C4.11541 22.2309 3.83502 22.0775 3.48227 22.0946C3.19284 22.0946 2.97576 22.2139 2.83104 22.4526C2.68632 22.6571 2.60492 22.964 2.61397 23.305C2.61397 23.5607 2.68632 23.7994 2.79486 23.9528C2.91245 24.1574 3.19284 24.3449 3.63603 24.5154C4.73046 24.9587 5.50832 25.4019 5.9877 25.8622C6.46708 26.3225 6.81078 26.8851 7.01881 27.55C7.23589 28.2319 7.34443 29.0161 7.34443 29.8004C7.34443 30.7551 7.19067 31.6927 6.91028 32.494C6.61179 33.3293 6.19573 33.9772 5.70731 34.3693C5.19175 34.7955 4.54052 35.0171 3.76266 35.0171C2.38784 35.0171 1.43813 34.5227 0.904486 33.5169C0.370839 32.494 0.0723589 31.2324 0 29.6981H0Z" fill="white"/>
<path d="M12.0297 28.5047L14.2185 29.7493C14.1009 30.7892 13.8567 31.778 13.5221 32.6475C13.2145 33.4146 12.8075 34.0113 12.3462 34.4034C11.8759 34.7955 11.2789 35.0001 10.5553 35.0001C9.678 35.0001 8.95441 34.7614 8.40267 34.2841C7.84189 33.8067 7.36251 32.9543 6.95549 31.7439C6.54847 30.5335 6.34949 28.9821 6.34949 27.0897C6.34949 24.5666 6.70224 22.6231 7.41678 21.2763C8.13133 19.9295 9.13531 19.2476 10.4378 19.2476C11.4598 19.2476 12.2558 19.6397 12.8437 20.4068C13.4226 21.1911 13.8567 22.3844 14.1462 23.987L11.9392 24.9076C11.8849 24.5496 11.8035 24.1915 11.695 23.8847C11.5593 23.5267 11.3875 23.2539 11.1794 23.0493C10.9714 22.8447 10.7362 22.7595 10.5011 22.7595C9.93125 22.7595 9.4971 23.1857 9.19862 24.0552C8.9725 24.6859 8.85491 25.6918 8.85491 27.0556C8.85491 28.7434 8.99059 29.9027 9.26193 30.5335C9.53328 31.1643 9.91316 31.4711 10.4106 31.4711C10.89 31.4711 11.2518 31.2154 11.496 30.721C11.7402 30.1925 11.9211 29.4594 12.0297 28.5047ZM17.14 19.5033H19.6364V24.8394H22.3679V19.5033H24.8824V34.7444H22.3679V28.5729H19.6364V34.7444H17.14V19.5033V19.5033Z" fill="white"/>
<path d="M24.5387 27.1238C24.5387 24.6348 24.9095 22.6913 25.6422 21.3104C26.3748 19.9294 27.4059 19.2305 28.7174 19.2305C30.0651 19.2305 31.0962 19.9124 31.8289 21.2763C32.5615 22.6401 32.9233 24.5495 32.9233 27.0045C32.9233 28.7945 32.7605 30.2436 32.4439 31.3859C32.1364 32.511 31.657 33.4316 31.0691 34.0454C30.4631 34.6762 29.7124 35.0001 28.8169 35.0001C27.9034 35.0001 27.1527 34.7273 26.5557 34.1818C25.9407 33.6021 25.4341 32.6986 25.0995 31.5904C24.7286 30.3971 24.5387 28.9139 24.5387 27.1238ZM27.0351 27.1408C27.0351 28.6752 27.1888 29.7833 27.4873 30.4652C27.7858 31.1301 28.2019 31.4711 28.7265 31.4711C29.2601 31.4711 29.6762 31.1472 29.9747 30.4823C30.2731 29.8174 30.4179 28.6411 30.4179 26.9363C30.4179 25.5042 30.2641 24.4472 29.9566 23.7994C29.649 23.1345 29.233 22.8106 28.7084 22.8106C28.2471 22.7765 27.8039 23.1516 27.4964 23.8164C27.1888 24.4813 27.0351 25.5895 27.0351 27.1408V27.1408ZM35.483 27.1238C35.483 24.6348 35.8538 22.6913 36.5865 21.3104C37.3191 19.9294 38.3502 19.2305 39.6617 19.2305C41.0094 19.2305 42.0496 19.9124 42.7731 21.2763C43.4967 22.6401 43.8676 24.5495 43.8676 27.0045C43.8676 28.7945 43.7048 30.2436 43.3882 31.3859C43.0807 32.511 42.6013 33.4316 42.0134 34.0454C41.4074 34.6762 40.6566 35.0001 39.7612 35.0001C38.8477 35.0001 38.0969 34.7273 37.5 34.1818C36.8849 33.6021 36.3784 32.6986 36.0438 31.5904C35.6729 30.3971 35.483 28.9139 35.483 27.1238V27.1238ZM37.9794 27.1408C37.9794 28.6752 38.1331 29.7833 38.4316 30.4652C38.7301 31.1301 39.1462 31.4711 39.6708 31.4711C40.2044 31.4711 40.6205 31.1472 40.9189 30.4823C41.2174 29.8174 41.3621 28.6411 41.3621 26.9363C41.3621 25.5042 41.2084 24.4472 40.9009 23.7994C40.5933 23.1345 40.1773 22.8106 39.6527 22.8106C39.1914 22.7765 38.7391 23.1516 38.4407 23.8164C38.1331 24.4813 37.9794 25.5895 37.9794 27.1408V27.1408Z" fill="white"/>
<path d="M43.6053 19.5032H46.1017V30.9937H50V34.7443H43.5963V19.5032H43.6053Z" fill="white"/>
<path d="M40.8537 18.6236C43.367 15.0537 44.1421 9.00214 42.5848 5.10707C41.0275 1.21201 37.7276 0.948409 35.2143 4.51831C32.701 8.0882 31.9259 14.1398 33.4832 18.0348C35.0405 21.9299 38.3404 22.1935 40.8537 18.6236Z" fill="white"/>
<path d="M27.0735 9.63916L40.0613 -8.80853L49.0485 13.6701L36.0607 32.1177L27.0735 9.63916Z" fill="white"/>
<path d="M40.8537 18.6236C43.3671 15.0537 44.1421 9.00214 42.5848 5.10707C41.0275 1.21201 37.7276 0.948409 35.2143 4.51831C32.701 8.0882 31.926 14.1398 33.4833 18.0348C35.0405 21.9299 38.3404 22.1935 40.8537 18.6236Z" fill="white"/>
<path d="M30.6902 11.1401L39.7846 -1.77705L45.4294 12.342L36.3349 25.2592L30.6902 11.1401Z" fill="white"/>
<path d="M40.8537 18.6236C43.3671 15.0537 44.1421 9.00214 42.5848 5.10707C41.0275 1.21201 37.7276 0.948409 35.2143 4.51831C32.701 8.0882 31.926 14.1398 33.4833 18.0348C35.0405 21.9299 38.3404 22.1935 40.8537 18.6236Z" fill="white" stroke="black" stroke-width="4" stroke-miterlimit="10"/>
<path d="M30.6902 11.1401L39.7846 -1.77705L45.4294 12.342L36.3349 25.2592L30.6902 11.1401Z" stroke="black" stroke-width="4" stroke-miterlimit="10"/>
<path d="M40.8537 18.6236C43.3671 15.0537 44.1421 9.00214 42.5848 5.10707C41.0275 1.21201 37.7276 0.948409 35.2143 4.51831C32.701 8.0882 31.926 14.1398 33.4833 18.0348C35.0405 21.9299 38.3404 22.1935 40.8537 18.6236Z" stroke="black" stroke-width="4" stroke-miterlimit="10"/>
<path d="M30.6902 11.1401L39.7846 -1.77705L45.4294 12.342L36.3349 25.2592L30.6902 11.1401Z" fill="white"/>
<path d="M40.8537 18.6236C43.3671 15.0537 44.1421 9.00214 42.5848 5.10707C41.0275 1.21201 37.7276 0.948409 35.2143 4.51831C32.701 8.0882 31.926 14.1398 33.4833 18.0348C35.0405 21.9299 38.3404 22.1935 40.8537 18.6236Z" fill="white" stroke="black" stroke-width="4" stroke-miterlimit="10"/>
<path d="M30.6902 11.1401L39.7846 -1.77705L45.4294 12.342L36.3349 25.2592L30.6902 11.1401Z" stroke="black" stroke-width="4" stroke-miterlimit="10"/>
<path d="M27.0735 9.63916L40.0613 -8.80853L49.0485 13.6701L36.0607 32.1177L27.0735 9.63916Z" stroke="black" stroke-width="4" stroke-miterlimit="10"/>
<path d="M40.8537 18.6236C43.3671 15.0537 44.1421 9.00214 42.5848 5.10707C41.0275 1.21201 37.7276 0.948409 35.2143 4.51831C32.701 8.0882 31.926 14.1398 33.4833 18.0348C35.0405 21.9299 38.3404 22.1935 40.8537 18.6236Z" stroke="black" stroke-width="4" stroke-miterlimit="10"/>
<path d="M35.4921 10.4504L36.3965 9.25707L37.5091 12.2405C37.699 12.7179 37.8437 13.2293 37.9523 13.7919C38.0156 14.2181 37.9975 14.6784 37.907 15.0876C37.7895 15.599 37.5995 16.0252 37.3463 16.3321C37.0478 16.7242 36.7945 16.9458 36.5774 17.014C36.3694 17.0822 36.1523 17.014 35.9533 16.8435C35.7363 16.6389 35.5463 16.3491 35.4016 15.9741L36.1795 14.6102C36.2428 14.7977 36.3242 14.9682 36.4146 15.1046C36.478 15.1898 36.5503 15.241 36.6317 15.241C36.695 15.241 36.7583 15.1898 36.8036 15.1217C36.894 15.0194 36.9573 14.8148 36.9483 14.6102C36.9211 14.3204 36.8578 14.0306 36.7583 13.8089L35.4921 10.4504V10.4504ZM38.2055 12.3428L39.0286 11.1153C39.1191 11.3199 39.2366 11.4733 39.3633 11.5586C39.5442 11.6609 39.7341 11.5927 39.8879 11.371C39.9964 11.2347 40.0869 11.0471 40.123 10.8085C40.1773 10.5016 40.0869 10.1606 39.924 10.0583C39.8969 10.0413 39.8698 10.0242 39.8426 10.0242C39.7341 10.0072 39.5442 10.0924 39.2638 10.3141C38.8025 10.6721 38.4407 10.8085 38.1693 10.7573C37.907 10.7062 37.6628 10.4504 37.5181 10.0242C37.4096 9.73442 37.3553 9.39345 37.3463 9.05249C37.3463 8.66038 37.4005 8.26827 37.5181 7.94435C37.69 7.48405 37.898 7.09194 38.1512 6.78508C38.5311 6.29068 38.8658 6.052 39.1552 6.052C39.4447 6.052 39.716 6.30773 39.9693 6.83622L39.1552 8.04664C38.9924 7.65454 38.6849 7.56929 38.4769 7.87616L38.4497 7.92731C38.3593 8.0296 38.296 8.18303 38.2598 8.37056C38.2327 8.50695 38.2507 8.66038 38.296 8.77972C38.3321 8.86496 38.3864 8.93315 38.4497 8.93315C38.5221 8.9502 38.6487 8.88201 38.8296 8.72857C39.2819 8.37056 39.6256 8.16598 39.8607 8.09779C40.0597 8.0296 40.2677 8.06369 40.4577 8.21713C40.6295 8.35351 40.7743 8.59219 40.8738 8.88201C41.0004 9.22297 41.0727 9.63213 41.0818 10.0583C41.0908 10.5016 41.0275 10.9278 40.9009 11.3029C40.7381 11.7632 40.53 12.1553 40.2858 12.4621C39.7884 13.11 39.3814 13.3827 39.0557 13.2804C38.703 13.1782 38.4136 12.8372 38.2055 12.3428V12.3428Z" fill="black"/>
</g>
<defs>
<clipPath id="clip0_11298_30">
<rect width="50" height="35" fill="white"/>
</clipPath>
</defs>
</svg>
